<svg width="529" height="357" xmlns="http://www.w3.org/2000/svg"><g fill-rule="nonzero" fill="none"><path d="M391.719 52.281c-69.709-69.708-182.729-69.708-252.438 0-69.708 69.709-69.708 182.729 0 252.438 69.709 69.708 182.729 69.708 252.438 0 69.708-69.709 69.708-182.729 0-252.438z" fill="#666"/><path d="M299.83 65.721l.148-3.595.395-9.567-82.103-2.854-.732 13.172 82.29 2.86.001-.016zm31.664 122.803a7.028 7.028 0 013.88 2.02l.429.438c3.645-1.603 5.788-5.85 6.367-12.651a50.585 50.585 0 00-.2-9.678l-17.762 4.362-.03 6.5a1.107 1.107 0 01-1.108 1.103h-.006l-14.396-.068 1.352 3.504c.078.21.1.438.064.66 7.976 1.504 15.366 2.837 21.406 3.814l.004-.004zm-39.578-7.302l2.478.483a73.588 73.588 0 00-.24-1.045l-2.238.562zM216.057 49.628l-12.454-.432-.562 13.174 12.284.427.732-13.169zm38.407 95.76l11.553-.321-11.156-.22-.391.539-.006.003zm4.373-18.082l.38-.293-20.002-.093 19.622.386zm55.248-61.076l.1-2.308.467-10.866-12.056-.42-.375 9.086-.17 4.08v.01l4.152.14 7.882.278zm2.853 27.13l.105-3.949.252-9.325.24-8.839-103.73-2.778-.591 22.112 43.87 1.175 15.5.415 44.354 1.188zm-92.603-15.69a1.094 1.094 0 011.152-1.065l78.266 2.897a1.108 1.108 0 01-.04 2.214h-.042l-78.26-2.895a1.108 1.108 0 01-1.065-1.147l-.011-.003zm6.186 6.395a1.108 1.108 0 01-1.07-1.139 1.124 1.124 0 011.14-1.075l66.392 1.921a1.108 1.108 0 01-.035 2.215h-.03l-66.397-1.922zm-27.095 23.208h121.2V96.49h-121.2v10.783zm186.943-53.047c-68.867-68.455-180.116-68.278-248.766.394-68.65 68.673-68.826 179.96-.395 248.85a177.06 177.06 0 0038.146 29.04c4.853-8.979 9.043-27.432 10.47-35.152l.17-1.015c2.646-15.516 4.023-28.293 5.07-39.762l-3.64 2.052a1.107 1.107 0 01-1.624-1.205l7.364-32.947.018-.058c.017-.053 1.415-4.96 4.215-12.979l-4.613.836a1.107 1.107 0 01-1.07-1.766l14.161-18.184c2.468-3.79 4.21-6.826 6.221-10.347l.047-.082 1.04-1.772-11.307-.052a1.107 1.107 0 01-1.1-1.112l.083-16.962-3.526.1h-.03a1.106 1.106 0 01-1.104-1.076l-.357-12.996a1.108 1.108 0 011.076-1.135l36.496-1.012.79-1.345-30.591-.597a1.107 1.107 0 01-1.082-1.135l.427-15.394c.006-.221.08-.435.21-.614l-6.239-.03a1.107 1.107 0 01-1.105-1.11l.07-14.476a1.107 1.107 0 011.106-1.1h.011l12.36.058h.007l100.89.48c.61.004 1.102.501 1.1 1.111l-.07 14.47a1.107 1.107 0 01-1.106 1.106h-.005l-11.916-.059a1.086 1.086 0 01-.117.018h-.024a1.093 1.093 0 01-.158-.018l-37.367-.175c.048.123.085.25.11.38l56.675 1.111a1.107 1.107 0 011.084 1.139l-.38 13.836 2.198-.059a1.098 1.098 0 011.137 1.076l.357 12.99a1.107 1.107 0 01-1.076 1.141l-72.473 2.018 54.423.258c.03 0 .059-.012.094-.012s.064.008.1.012l16.324.076c.61.004 1.101.5 1.1 1.11l-.037 8.193 18.54-4.556a1.312 1.312 0 011.608 1.064c.147.89 3.28 20.638-6.648 26.137l15.419 15.827a6.993 6.993 0 011.255 7.978c.02.233-.025.467-.129.677l-3.268 6.527a1.31 1.31 0 01-.199.292 2.657 2.657 0 01-.286.264 609.923 609.923 0 01-1.97 3.936c-4.362 7.135-18.652 5.41-27.189 4.386-1.198-.146-2.28-.279-3.216-.368a8.679 8.679 0 00-3.45.45l-49.955 16.578c1.532 4.165 6.928 19.19 8.712 29.087a1.107 1.107 0 01-1.468 1.237l-2.321-.842c.245 3.422.915 11.587 2.263 20.126.827 3.548 1.549 7.019 1.962 10.154.555 2.347 1.175 4.585 1.87 6.597a1.108 1.108 0 01-1.77 1.2c-.071-.06-1.696-1.41-3.474-.697-.608 2.31.415 15.523.865 21.261.217 2.784.369 4.796.38 5.557.06 3.97.087 7.9.079 11.785 70.125-2.403 132.14-46.204 157.87-111.504 25.731-65.3 10.273-139.649-39.352-189.27zM200.782 63.39l.657-15.389a1.104 1.104 0 011.144-1.058l14.623.507c.024 0 .047-.005.076-.004.03.002.035.012.053.012l98.497 3.428a1.107 1.107 0 011.064 1.158l-.66 15.388a1.107 1.107 0 01-1.106 1.059h-.04l-113.255-3.937a1.107 1.107 0 01-1.071-1.152l.018-.012zm126.054 44.99a1.107 1.107 0 01-1.107 1.107H202.316a1.107 1.107 0 01-1.108-1.108V95.378a1.107 1.107 0 011.107-1.111h66.049l-56.324-1.51a1.107 1.107 0 01-1.077-1.14l.655-24.331a1.111 1.111 0 011.14-1.082l105.946 2.836a1.111 1.111 0 011.082 1.135l-.644 24.074h6.607a1.107 1.107 0 011.111 1.105l-.024 13.026z" fill="#F4F4F4"/><path d="M271.029 298.916c.542 3.428 1.195 6.912 1.971 10.176-.415-3.138-1.14-6.621-1.971-10.175zm-25.92-154.119l.612-.68-5.955-.117-.688 1.218 5.913-.164.119-.257zm21.236 132.77a.365.365 0 01.08-.292l-.006-.09a1.11 1.11 0 01.447-.954c.3-.222.693-.28 1.044-.152l2.083.753c-2.053-9.664-6.939-23.226-8.312-26.955a46.901 46.901 0 01-14.34-4.767c-7.189-3.797-16.181-11.286-18.18-25.396a49.396 49.396 0 01-.499-7.522c.006-.352.018-.692.03-1.032.011-.34.029-.686.052-1.026.876-14.534 9.034-23.105 16.44-27.93.398-.263.92-.243 1.296.051s.521.796.36 1.244a41.728 41.728 0 015.014-3.71h-.57l-6.136-.03-1.581-.012-1.581-.006-23.339-.111-.77 1.22-1.017 1.723c-2.05 3.565-3.82 6.643-6.347 10.518a.886.886 0 01-.053.076L198 209.12c2.662-1.061 15.128-5.282 15.475 8.267.87 34.544 48.223 14.616 49.793 79.823 0 0-.088 31.243-10.338 57.385 3.96.264 7.946.405 11.948.405 1.293 0 2.58-.018 3.862-.047.007-3.9-.018-7.85-.077-11.849-.012-.692-.17-2.785-.376-5.429-1.587-20.373-1.223-22.671.058-23.334a5.107 5.107 0 013.661-.428c-3.573-12.03-5.02-29.004-5.43-34.773a47.52 47.52 0 01-.2-1.6l-.031.028zm-29.652-58.403a45.496 45.496 0 01-1.173-5.716 37.78 37.78 0 01-.23-2.11c-1.051-12.664 4.515-21.3 10.366-26.776-6.78 4.631-13.977 12.658-14.71 25.984-.018.34-.031.686-.04 1.032-.01.346-.024.686-.024 1.032a47.114 47.114 0 00.482 6.806c3.165 22.373 25.135 27.35 30.313 28.218.098-.076.209-.136.327-.175l.247-.083c-2.004.042-18.073-.557-25.555-28.194l-.003-.018z" fill="#EBEBEB"/><path d="M351.604 211.064l-12.551-12.578-6.208 2.422c-.215.084-.452.1-.677.047l-11.603-2.756a1.088 1.088 0 01-.8-1.311 1.117 1.117 0 011.327-.807l11.255 2.673 5.02-1.957-1.95-1.957c-.035 0-.064.016-.1.016-.375 0-.733-.157-.982-.43a1.267 1.267 0 01-.326-1.003l-.3-.302a4.871 4.871 0 00-2.67-1.357A673.37 673.37 0 01320.533 190c-6.211 1.71-20.353 7.612-17.036 25.493 1.839 9.9 6.63 13.792 11.697 15.386.969-.191 1.96-.255 2.946-.187.984.094 2.092.224 3.318.368 8.055.949 21.525 2.532 25.208-3.25l.69-1.336a31.246 31.246 0 01-8.12.88c-5.198 0-12.61-.754-23.123-3.085a1.295 1.295 0 01-1.016-.857c-.15-.448-.036-.94.298-1.28.333-.34.832-.471 1.296-.343 1.149.253 2.245.483 3.317.702 21.962 4.443 27.996 1.214 28.862.627l2.752-5.375.412-.806c.106-.205.267-.378.466-.5a4.614 4.614 0 00-.86-5.359l-.036-.014z" fill="#999"/><path d="M388.872 163.332l-.004-.157-.31-.027-.014.153a4.303 4.303 0 01-4.648 3.918h-.156l-.027.31.156.013a4.307 4.307 0 013.912 4.658l.003.152.311.024.012-.159a4.303 4.303 0 014.643-3.924h.153l.023-.31-.158-.018a4.306 4.306 0 01-3.91-4.658l.014.025zm-256.937 26.505v-.177l-.352-.039-.02.176a4.848 4.848 0 01-5.348 4.276l-.176-.005-.039.346.176.018a4.853 4.853 0 014.273 5.357v.176l.351.035.02-.176a4.848 4.848 0 015.348-4.276l.176.006.038-.353-.176-.023a4.853 4.853 0 01-4.272-5.363v.022zm280.913-48.535l-.382-.455a.65.65 0 00-.915-.079l-5.073 4.298-1.682-2a.513.513 0 00-.722-.063l-.63.532a.516.516 0 00-.063.724l2.568 3.054a.513.513 0 00.721.062l.088-.073c.007-.006.015-.006.022-.012l5.99-5.069a.653.653 0 00.078-.916v-.003zM174.531 92.227a.607.607 0 00-.851-.094l-4.837 3.888-1.522-1.908a.48.48 0 00-.672-.075l-.598.482a.482.482 0 00-.076.673l2.321 2.913a.48.48 0 00.674.075l.082-.067c.006-.005.018-.008.024-.013l5.71-4.587a.61.61 0 00.094-.852l-.349-.435z" fill="#D0D0D0"/><path d="M300.127 112.754l-86.657-.41-.059 12.297 48.999.232 35.045.165 2.894.014v-.018l-.074-4.06-.148-8.22zm16.347-23.404l.25-9.357.241-8.868-104.142-2.788-.593 22.189 44.044 1.18 15.561.416 44.538 1.191.101-3.963zm-20.176-3.436h-.032l-66.656-1.928a1.111 1.111 0 01-1.08-1.143 1.128 1.128 0 011.139-1.08l66.656 1.925a1.112 1.112 0 01-.036 2.218l.01.008zm6.789-4.284h-.042l-78.575-2.907a1.112 1.112 0 01-1.07-1.156 1.097 1.097 0 011.157-1.074l78.578 2.905a1.112 1.112 0 01-.04 2.218l-.008.014zm-3.89-16.048l.152-3.607.4-9.6-82.43-2.864-.734 13.21 82.617 2.869-.006-.008zm4.807 80.756l-51.223 1.42-1.168.03-1.168.03-6.293.175-6.14.17-.2.006-1.31.036-1.308.035-34.13.945.306 10.815 27.331-.763 1.315-.035 1.315-.035.253-.006 7.543-.211 8.136-.23 1.168-.035 1.168-.035 32.11-.892 22.835-.633-.117-2.524-.423-8.263zm-92.755-34l-10.19-.054L201 124.58l10.19.047.06-12.289zm3.845-62.904L202.591 49l-.564 13.216 12.334.428.733-13.21zm107.636 97.984l-.041-1.608-1.45.041-9.099.253-5.905.164.375 7.875.141 2.935 16.249-.452-.27-9.208zm-9.222-81.33l.1-2.317.47-10.904-12.105-.422-.376 9.113-.17 4.09v.012l4.168.141 7.913.288zm-10.937 58.943v.03l9.909.046v-.087l.045-9.453.013-2.759-10.189-.047.138 7.659.084 4.611z" fill="#F9CF36"/><path d="M313.649 65.335l.098-2.29.278-7.045s-1.245 2.732-12.126 4.861l-.167 4.05 4.105.152 7.812.272zm-13.961-4.072c-8.94 1.5-23.385 2.557-46.688 1.845l46.54 1.722.148-3.567zm.99 62.357l-.073-4.017c-7.27 1.696-18.87 3.28-37.334 3.857l34.556.163 2.85-.003zm2.192 0l9.77-.012.045-9.346c-.082.174-1.326 2.5-9.898 4.799l.083 4.559zm13.707-35.285l.248-9.252c-3.212 9.132-24.95 11.588-43.514 11.977l43.141 1.065.125-3.79zm-43.266 2.724l-16.1-.398 15.346.412.754-.014zm49.43 54.7c-.51.786-3.232 3.802-15.902 6.65l.14 2.902 16.021-.447-.258-9.106zM282.275 156l22.512-.628-.119-2.495a209.98 209.98 0 01-22.394 3.12V156z" fill="#F7B300"/><path d="M218.922 180.795l.772-1.219h-.05l-.722 1.219zm48.458 96.397c.053.508.123 1.041.204 1.591-.07-.982-.109-1.636-.123-1.882a.363.363 0 00-.079.292l-.002-.001zm-9.962-87.834c.819 3.162 3.948 12.043 10.696 16.754 4.374 3.052 9.5 3.799 15.242 2.21 4.938-1.367 8.476-4.038 10.517-7.948a19.268 19.268 0 001.962-6.815c.006-.134.023-.374.059-.707a40.446 40.446 0 00-.787-9.362l-8.041-1.56-29.648 7.428zm8.317 7.3c.055-.213 1.452-5.195 9.026-6.567 7.616-1.38 10.384 2.942 10.497 3.126.208.337.22.76.03 1.107a1.113 1.113 0 01-1.925.052c-.059-.087-1.182-1.737-4.112-2.211.176.258.296.55.353.856a2.642 2.642 0 01-2.17 2.848 2.653 2.653 0 01-3.033-1.913 2.27 2.27 0 01.316-1.59c-5.71 1.203-6.79 4.711-6.834 4.865-.135.477-.57.808-1.069.812a1.114 1.114 0 01-.875-.428c-.21-.27-.284-.62-.2-.951l-.004-.007zm20.415 1.63c-.056.21-1.453 5.194-9.027 6.566-.946.175-1.906.266-2.868.27-5.462 0-7.536-3.239-7.63-3.398a1.102 1.102 0 01-.07-1.136 1.113 1.113 0 011.961-.022c.077.123 2.156 3.208 8.2 2.11 6.197-1.122 7.26-4.91 7.272-4.95a1.113 1.113 0 012.15.56h.012zm-34.073-53.745c.032-.097.079-.19.137-.274l-5.442-.107-.617.678-.117.256 5.92-.164.119-.389zm68.992 43.814a1531.351 1531.351 0 01-16.782-3.103c-.479.12-.944.286-1.39.496-3.167 1.498-4.077 5.314-4.33 7.083a22.538 22.538 0 01-2.35 8.75c-2.39 4.582-6.478 7.699-12.146 9.266-2.077.59-4.225.898-6.385.914a18.955 18.955 0 01-11.066-3.507c-8.898-6.212-11.917-18.27-12.035-19.767-.049-.637.37-1.216.993-1.372l25.445-6.366-4.658-.91-21.639-.102-1.198-.006h-.628a41.692 41.692 0 00-5.004 3.694c-.08.23-.232.426-.435.56a19.9 19.9 0 00-.729.491c-5.844 5.459-11.406 14.074-10.355 26.697.03.351.059.696.1 1.052.04.357.082.702.129 1.058.269 1.925.661 3.83 1.175 5.704 7.477 27.55 23.536 28.147 25.544 28.112l51.024-16.838c.467-.154.943-.277 1.427-.368-5.051-1.619-9.827-5.57-11.656-15.622-3.307-18.158 10.79-24.149 16.985-25.885l-.036-.03zm-106.549 28.86c-.341-13.507-12.804-9.295-15.464-8.24l-.016.02 3.653-.655c.39-.07.79.071 1.046.373.257.3.333.716.199 1.088-3.09 8.661-4.686 14.152-4.817 14.602l-6.844 30.468 3.323-1.862c.36-.202.803-.189 1.15.034.346.223.54.619.504 1.028-1.08 12.045-2.471 25.476-5.305 42.004l-.17 1.028c-.224 1.198-4.612 24.517-10.779 35.797A176.177 176.177 0 00253.957 354c10.243-26.066 10.332-57.205 10.332-57.205-1.569-65-48.893-45.136-49.762-79.57l-.007-.008zm26.203-73.172l-.723 1.22.135-.003.687-1.216h-.1zm-37.474-48.043v10.775H325V96l-121.751.002zm116.962 47.042l.357-12.833-56.035-1.095-1.184-.023-1.195-.024-1.738-.034-.502-.01-.267-.006-1.786-.035-1.787-.035-47.101-.92-.366 13.172 30.862.608 1.486.029 1.697.035h.09l5.995.117 5.051.1 1.351.028 1.348.03 56.54 1.104 7.184-.208zm-15.69-5.659h-.02l-44.212-.778-1.318-.024-1.322-.023-3.955-.07-3.724-.066h-.062l-1.792-.031-1.79-.032-20.382-.36a1.11 1.11 0 01-1.08-1.115 1.11 1.11 0 011.098-1.098h.017l23.19.409 1.791.032 1.792.035h.123l2.778.052 3.436.059 1.304.023 1.298.023 42.837.76a1.11 1.11 0 011.104 1.116 1.11 1.11 0 01-1.122 1.1l.011-.012zm-97.688 39.917l11.546.054 1.289.006h.248l.006-.429.025-2.22.141-12.52-13.192-.058-.063 15.167zm101.284-3.514l-.006 2.702v1.288h.005l14.223.066.023-4.84.012-2.705.036-7.633-14.266-.07-.027 11.192zm-9.854 3.943l4.967.023 2.056.01h.601v-3.436l.025-11.735-56.759-.267-1.157-.006-1.158-.005-8.734-.04-7.889-.041h-.287l-1.287-.006-1.286-.006-5.034-.023-.1 8.684-.023 2.221-.024 2.221-.005.304-.018 1.736 23.524.11 1.58.007 1.586.005 4.852.024 1.174.006 1.175.005h.787l7.93.036 5.92.029 5.91.023 16.604.076 1.145.006 2.08.006 1.845.033zm-12.634-6.693h-.008l-28.523-.2-3.142-.023-7.29-.05-1.157-.008-1.157-.008-2.114-.018a1.11 1.11 0 01-1.11-1.11 1.11 1.11 0 011.116-1.105h.005l2.75.018 1.156.006 1.158.005 38.313.27a1.11 1.11 0 011.035 1.11 1.11 1.11 0 01-1.046 1.099l.014.014z" fill="#FFF"/><path d="M51.621 333.188a175.516 175.516 0 002.531-16.032c-1.156-.562-2.53-.719-4.125-.469-1.093 3.907-2.789 6.93-5.086 9.07-2.296 2.141-5.789 3.212-10.476 3.212h0-5.766c-2.25 0-3.375-2.531-3.375-7.594h0v-38.578c0-1.938.149-3.492.446-4.664.296-1.172.843-2.031 1.64-2.578.797-.547 1.578-.899 2.344-1.055.766-.156 1.945-.266 3.539-.328.469-.344.695-.914.68-1.711-.016-.797-.243-1.32-.68-1.57a460.767 460.767 0 00-11.063.14c-1.187.031-2.359.047-3.515.047-2.594 0-7.531-.062-14.813-.187-.437.25-.656.78-.656 1.593s.219 1.375.656 1.688c1.625.062 2.82.172 3.586.328.766.156 1.547.508 2.344 1.055.797.547 1.336 1.414 1.617 2.601.281 1.188.422 2.735.422 4.64h0v38.485c0 1.938-.14 3.492-.422 4.664-.281 1.172-.82 2.032-1.617 2.578-.797.547-1.586.899-2.367 1.055-.781.156-1.969.266-3.563.328-.437.281-.656.82-.656 1.617s.219 1.352.656 1.664c7.375-.125 12.297-.187 14.766-.187h21.469c1.843 0 5.672.063 11.484.188zm44.691-.047c.797-3.844 1.43-7.852 1.899-12.024-.867-.422-1.898-.539-3.094-.351-.82 2.93-2.092 5.197-3.814 6.802-1.723 1.606-4.342 2.409-7.858 2.409h0-4.324c-1.687 0-2.531-1.899-2.531-5.696h0v-28.933c0-1.453.111-2.62.334-3.498.222-.88.633-1.524 1.23-1.934.598-.41 1.184-.674 1.758-.791.574-.117 1.46-.2 2.654-.246.352-.258.522-.686.51-1.283-.012-.598-.181-.99-.51-1.178a345.546 345.546 0 00-8.297.105c-.89.024-1.769.036-2.636.036h0l-.399-.001c-2.032-.006-5.602-.052-10.71-.14-.329.187-.493.586-.493 1.195 0 .61.164 1.032.492 1.266 1.22.047 2.116.129 2.69.246.574.117 1.16.38 1.758.791.597.41 1.002 1.06 1.213 1.951.21.89.316 2.051.316 3.48h0v28.864c0 1.453-.105 2.62-.316 3.498-.211.879-.616 1.523-1.213 1.934-.598.41-1.19.673-1.776.79-.586.118-1.476.2-2.672.247-.328.21-.492.615-.492 1.213 0 .597.164 1.013.492 1.248 5.532-.094 9.223-.141 11.075-.141h16.101c1.383 0 4.254.047 8.614.14zm58.075 0c.187-.188.281-.598.281-1.23 0-.634-.094-1.044-.281-1.231-1.008-.094-1.57-.14-1.688-.14-.117 0-.562-.083-1.336-.247-.773-.164-1.277-.363-1.511-.598a19.803 19.803 0 01-.967-1.072c-.41-.48-.733-1.084-.967-1.81h0l-14.836-41.204c-3.516 2.133-6.164 3.2-7.945 3.2h0l-15.61 36.843c-.562 1.453-1.242 2.537-2.039 3.252-.797.715-1.547 1.166-2.25 1.354-.703.187-1.675.328-2.918.422-.234.21-.351.627-.351 1.248 0 .62.117 1.025.351 1.213 3.563-.094 5.825-.141 6.785-.141 2.813 0 6 .047 9.563.14.187-.187.281-.597.281-1.23s-.094-1.043-.281-1.23l-1.389-.106a16.418 16.418 0 01-1.336-.176c-.574-.093-.972-.21-1.195-.351-.223-.14-.51-.334-.861-.58-.352-.246-.48-.551-.387-.914.094-.364.164-.78.21-1.248h0l3.798-9.985c.21-.492.469-.82.773-.984.305-.164.89-.246 1.758-.246h13.676l4.043 11.742c.094.328.152.61.176.844.023.234 0 .451-.07.65-.071.2-.165.37-.282.51-.117.14-.299.246-.545.316-.246.07-.463.141-.65.211-.188.07-.463.117-.826.14-.364.024-.674.048-.932.071-.258.024-.621.047-1.09.07a23.66 23.66 0 01-1.125.036c-.234.21-.351.627-.351 1.248 0 .62.117 1.025.351 1.213 3.563-.094 7.676-.141 12.34-.141 2.86 0 6.07.047 9.633.14zm-21.973-20.532H121.48c-.328 0-.603-.005-.826-.017a2.632 2.632 0 01-.58-.088c-.164-.047-.281-.106-.351-.176a.535.535 0 01-.141-.281.598.598 0 01.07-.387h0l6.399-16.101h.492l5.871 17.05zm52.836 20.954c.633.023 1.09-.282 1.371-.915h0l16.172-38.109h.176l1.828 30.094c.07 1.101.117 1.933.14 2.496a5.663 5.663 0 01-.158 1.617c-.129.516-.246.861-.351 1.037-.106.176-.405.352-.897.528-.492.175-.926.27-1.3.28-.376.013-1.043.042-2.004.089-.235.21-.352.627-.352 1.248 0 .62.117 1.025.352 1.213 4.5-.094 8.507-.141 12.023-.141 2.063 0 4.676.047 7.84.14.234-.187.351-.597.351-1.23s-.117-1.043-.351-1.23a44.489 44.489 0 01-2.092-.088 4.587 4.587 0 01-1.406-.352c-.48-.199-.803-.392-.967-.58-.164-.187-.34-.562-.527-1.125a7.237 7.237 0 01-.352-1.705c-.047-.574-.105-1.424-.176-2.549h0l-2.18-30.304c-.14-2.016.06-3.334.598-3.956.54-.62 1.992-1.001 4.36-1.142.234-.258.351-.674.351-1.248s-.117-.979-.351-1.213h0l-14.45.14-13.71 31.958h-.352l-12.867-31.957-14.766-.141c-.258.234-.38.644-.369 1.23.012.586.135.997.37 1.23 2.53.142 4.036.47 4.517.985.48.516.603 2.098.369 4.746h0l-2.883 29.672c-.234 2.274-.703 3.867-1.406 4.781-.703.915-2.04 1.454-4.008 1.618-.188.21-.281.627-.281 1.248 0 .62.093 1.025.281 1.213 2.906-.094 4.98-.141 6.223-.141 2.578 0 5.308.047 8.191.14.188-.187.281-.597.281-1.23s-.093-1.043-.281-1.23c-2.203-.188-3.592-.762-4.166-1.723-.574-.96-.768-2.566-.58-4.816h0l1.898-27h.282l14.168 35.507c.234.61.714.914 1.441.914zm91.121-.422c.188-.188.281-.598.281-1.23 0-.634-.093-1.044-.28-1.231-1.009-.094-1.571-.14-1.688-.14-.118 0-.563-.083-1.336-.247-.774-.164-1.278-.363-1.512-.598a19.802 19.802 0 01-.967-1.072c-.41-.48-.732-1.084-.967-1.81h0l-14.836-41.204c-3.515 2.133-6.164 3.2-7.945 3.2h0l-15.61 36.843c-.562 1.453-1.241 2.537-2.038 3.252-.797.715-1.547 1.166-2.25 1.354-.703.187-1.676.328-2.918.422-.235.21-.352.627-.352 1.248 0 .62.117 1.025.352 1.213 3.562-.094 5.824-.141 6.785-.141 2.812 0 6 .047 9.562.14.188-.187.282-.597.282-1.23s-.094-1.043-.282-1.23l-1.388-.106a16.418 16.418 0 01-1.336-.176c-.574-.093-.973-.21-1.196-.351-.222-.14-.51-.334-.86-.58-.352-.246-.481-.551-.388-.914.094-.364.164-.78.211-1.248h0l3.797-9.985c.211-.492.469-.82.774-.984.304-.164.89-.246 1.757-.246H255.7l4.043 11.742c.094.328.153.61.176.844.023.234 0 .451-.07.65-.07.2-.164.37-.282.51-.117.14-.298.246-.545.316-.246.07-.462.141-.65.211-.187.07-.463.117-.826.14-.363.024-.674.048-.932.071-.258.024-.62.047-1.09.07a23.66 23.66 0 01-1.125.036c-.234.21-.351.627-.351 1.248 0 .62.117 1.025.351 1.213 3.563-.094 7.676-.141 12.34-.141 2.86 0 6.07.047 9.633.14zm-21.973-20.532h-10.933c-.328 0-.604-.005-.826-.017a2.632 2.632 0 01-.58-.088c-.164-.047-.282-.106-.352-.176a.535.535 0 01-.14-.281.598.598 0 01.07-.387h0l6.398-16.101h.492l5.871 17.05zm48.934 20.532c.352-.235.522-.645.51-1.23-.012-.587-.182-.997-.51-1.231-1.195-.047-2.08-.13-2.654-.246-.574-.118-1.16-.381-1.758-.791-.598-.41-1.008-1.061-1.23-1.952-.223-.89-.335-2.05-.335-3.48h0v-28.934c0-2.554.264-4.26.791-5.115.528-.855 1.706-1.283 3.534-1.283 6 0 9 3.504 9 10.512 0 3.773-.598 6.492-1.793 8.156-1.196 1.664-3.258 2.496-6.188 2.496-1.406 0-2.613-.07-3.62-.211 0 1.383.48 2.39 1.44 3.023 1.008.141 1.852.211 2.532.211 6.328-.023 10.887-1.183 13.676-3.48 3.21-2.625 4.816-6.434 4.816-11.426.023-4.383-1.816-7.676-5.52-9.879-2.695-1.57-6.703-2.355-12.023-2.355-.96 0-4.746.082-11.355.246l-.447.01c-6.039.15-9.626.229-10.76.235l-.149.001c-.328.187-.492.586-.492 1.195 0 .61.164 1.032.492 1.266 1.219.047 2.115.129 2.69.246.574.117 1.16.38 1.757.791.598.41 1.002 1.06 1.213 1.951.211.89.317 2.051.317 3.48h0v28.864c0 1.453-.106 2.62-.317 3.498-.21.879-.615 1.523-1.213 1.934-.597.41-1.19.673-1.775.79-.586.118-1.477.2-2.672.247-.328.21-.492.615-.492 1.213 0 .597.164 1.013.492 1.248 3.844-.094 7.547-.141 11.11-.141 3.445 0 7.09.047 10.933.14zm62.75 0c.281-1.055.545-2.268.791-3.639s.475-2.93.686-4.676c.21-1.746.363-2.982.457-3.709-.961-.515-2.04-.633-3.235-.351-1.734 6.14-5.12 9.21-10.16 9.21h0-7.277c-.797 0-1.489-.333-2.074-1.001-.586-.668-.88-1.483-.88-2.444h0v-16.488h5.837c2.414 0 4.09.346 5.027 1.037.937.691 1.453 1.88 1.547 3.568.234.235.762.352 1.582.352.82 0 1.324-.117 1.512-.352-.094-3.351-.141-5.46-.141-6.328 0-1.265.047-3.34.14-6.222-.187-.235-.69-.352-1.511-.352-.82 0-1.348.117-1.582.352-.094 1.922-.592 3.17-1.494 3.744-.903.574-2.596.861-5.08.861h0-5.836v-13.605c0-.914.287-1.729.861-2.444.574-.715 1.271-1.072 2.092-1.072h6.117c2.508 0 4.336.586 5.484 1.758 1.149 1.172 2.157 3.152 3.024 5.941 1.195.188 2.226.07 3.094-.351-.094-.82-.2-2.069-.317-3.744l-.316-4.5c-.094-1.325-.164-2.057-.211-2.198-.024-.14-.13-.21-.317-.21a20.95 20.95 0 01-3.515.28h0-21.235l-11.109-.14c-.188.234-.281.644-.281 1.23s.093.997.281 1.23c2.695.095 4.418.487 5.168 1.179.75.691 1.125 2.478 1.125 5.361h0v28.793c0 2.836-.375 4.6-1.125 5.291-.75.691-2.473 1.084-5.168 1.178-.188.21-.281.627-.281 1.248 0 .62.093 1.025.281 1.213 2.367-.047 6.094-.094 11.18-.141h16.91c2.32 0 5.637.047 9.949.14zm31.707 0c7.758 0 13.945-2.016 18.563-6.047 1.78-1.524 3.199-3.727 4.253-6.61 1.055-2.882 1.582-6.129 1.582-9.738 0-7.055-2.273-12.861-6.82-17.42-4.547-4.558-11.062-6.838-19.547-6.838-1.336 0-3.07.012-5.203.035-1.882.021-3.27.033-4.167.035h-.731c-2.032-.006-5.603-.052-10.711-.14-.328.187-.492.586-.492 1.195 0 .61.164 1.032.492 1.266 1.219.047 2.115.129 2.69.246.573.117 1.16.38 1.757.791.598.41 1.002 1.06 1.213 1.951.21.89.316 2.051.316 3.48h0v28.864c0 1.453-.105 2.62-.316 3.498-.211.879-.615 1.523-1.213 1.934-.598.41-1.19.673-1.775.79-.586.118-1.477.2-2.672.247-.328.21-.492.615-.492 1.213 0 .597.164 1.013.492 1.248h0l11.11-.141c.96 0 2.905.023 5.835.07 2.675.043 4.53.066 5.563.07h.273zm.211-3.024c-2.648 0-4.465-.375-5.45-1.125-.984-.75-1.476-2.273-1.476-4.57h0v-29.496c0-3.61 1.488-5.414 4.465-5.414 2.742 0 5.11.468 7.102 1.406 1.992.937 3.527 2.115 4.605 3.533 1.078 1.418 1.94 3.205 2.584 5.361.645 2.157 1.055 4.196 1.23 6.118.176 1.922.264 4.125.264 6.61 0 3.116-.433 5.864-1.3 8.243-.868 2.38-1.987 4.219-3.358 5.52-1.371 1.3-2.789 2.261-4.254 2.883-1.465.62-2.935.931-4.412.931zm53.89 3.024c.352-.235.522-.645.51-1.23-.011-.587-.181-.997-.51-1.231-1.195-.047-2.08-.13-2.654-.246-.574-.118-1.16-.381-1.757-.791-.598-.41-1.008-1.061-1.231-1.952-.223-.89-.334-2.05-.334-3.48h0v-28.863c0-1.453.111-2.62.334-3.498.223-.88.633-1.524 1.23-1.934.598-.41 1.184-.674 1.758-.791.575-.117 1.46-.2 2.655-.246.351-.258.521-.686.51-1.283-.012-.598-.182-.99-.51-1.178-3.844.094-7.489.14-10.934.14-3.562 0-7.266-.046-11.11-.14-.327.187-.492.586-.492 1.195 0 .61.165 1.032.493 1.266 1.218.047 2.115.129 2.69.246.573.117 1.16.38 1.757.791.598.41 1.002 1.06 1.213 1.951.21.89.316 2.051.316 3.48h0v28.864c0 1.453-.105 2.62-.316 3.498-.211.879-.615 1.523-1.213 1.934-.598.41-1.19.673-1.775.79-.586.118-1.477.2-2.672.247-.328.21-.493.615-.493 1.213 0 .597.165 1.013.493 1.248 3.843-.094 7.547-.141 11.109-.141 3.445 0 7.09.047 10.934.14zm74.223.046c.25-.25.375-.796.375-1.64 0-.844-.125-1.39-.375-1.64-1.343-.126-2.093-.188-2.25-.188-.156 0-.75-.11-1.781-.328-1.031-.22-1.703-.485-2.016-.797-.312-.313-.742-.79-1.289-1.43-.547-.64-.976-1.445-1.289-2.414h0l-19.781-54.938c-4.687 2.844-8.219 4.266-10.594 4.266h0l-20.812 49.125c-.75 1.938-1.656 3.383-2.719 4.336-1.062.953-2.062 1.555-3 1.805-.937.25-2.234.437-3.89.562-.313.281-.47.836-.47 1.664s.157 1.368.47 1.618c4.75-.125 7.765-.188 9.046-.188 3.75 0 8 .063 12.75.188.25-.25.375-.797.375-1.641s-.125-1.39-.375-1.64c-.812-.063-1.43-.11-1.851-.141a21.89 21.89 0 01-1.782-.235c-.765-.125-1.296-.281-1.593-.469-.297-.187-.68-.445-1.149-.773-.468-.328-.64-.734-.515-1.219.125-.484.218-1.039.28-1.664h0l5.063-13.312c.282-.656.625-1.094 1.032-1.313.406-.219 1.187-.328 2.343-.328h18.235l5.39 15.656c.125.438.204.813.235 1.125.031.313 0 .602-.094.868a2.187 2.187 0 01-.375.68c-.156.187-.398.327-.727.421-.328.094-.617.188-.867.281-.25.094-.617.157-1.101.188a48.53 48.53 0 00-1.242.094 38.22 38.22 0 01-1.454.093c-.625.032-1.125.047-1.5.047-.312.281-.468.836-.468 1.664s.156 1.368.468 1.618c4.75-.125 10.235-.188 16.454-.188 3.812 0 8.093.063 12.843.188zm-29.297-27.375h-14.578c-.437 0-.804-.007-1.101-.023a3.509 3.509 0 01-.774-.117c-.218-.063-.375-.14-.468-.235a.713.713 0 01-.188-.375c-.031-.156 0-.328.094-.515h0l8.531-21.469h.656l7.828 22.735z" stroke="#FFF" stroke-width="4" fill="#666"/><path d="M51.621 333.188a175.516 175.516 0 002.531-16.032c-1.156-.562-2.53-.719-4.125-.469-1.093 3.907-2.789 6.93-5.086 9.07-2.296 2.141-5.789 3.212-10.476 3.212h-5.766c-2.25 0-3.375-2.531-3.375-7.594v-38.578c0-1.938.149-3.492.446-4.664.296-1.172.843-2.031 1.64-2.578.797-.547 1.578-.899 2.344-1.055.766-.156 1.945-.266 3.539-.328.469-.344.695-.914.68-1.711-.016-.797-.243-1.32-.68-1.57a460.767 460.767 0 00-11.063.14c-1.187.031-2.359.047-3.515.047-2.594 0-7.531-.062-14.813-.187-.437.25-.656.78-.656 1.593s.219 1.375.656 1.688c1.625.062 2.82.172 3.586.328.766.156 1.547.508 2.344 1.055.797.547 1.336 1.414 1.617 2.601.281 1.188.422 2.735.422 4.64v38.485c0 1.938-.14 3.492-.422 4.664-.281 1.172-.82 2.032-1.617 2.578-.797.547-1.586.899-2.367 1.055-.781.156-1.969.266-3.563.328-.437.281-.656.82-.656 1.617s.219 1.352.656 1.664c7.375-.125 12.297-.187 14.766-.187h21.469c1.843 0 5.672.063 11.484.188zm44.691-.047c.797-3.844 1.43-7.852 1.899-12.024-.867-.422-1.898-.539-3.094-.351-.82 2.93-2.092 5.197-3.814 6.802-1.723 1.606-4.342 2.409-7.858 2.409h-4.324c-1.687 0-2.531-1.899-2.531-5.696v-28.933c0-1.453.111-2.62.334-3.498.222-.88.633-1.524 1.23-1.934.598-.41 1.184-.674 1.758-.791.574-.117 1.46-.2 2.654-.246.352-.258.522-.686.51-1.283-.012-.598-.181-.99-.51-1.178a345.546 345.546 0 00-8.297.105c-.89.024-1.769.036-2.636.036l-.399-.001c-2.032-.006-5.602-.052-10.71-.14-.329.187-.493.586-.493 1.195 0 .61.164 1.032.492 1.266 1.22.047 2.116.129 2.69.246.574.117 1.16.38 1.758.791.597.41 1.002 1.06 1.213 1.951.21.89.316 2.051.316 3.48v28.864c0 1.453-.105 2.62-.316 3.498-.211.879-.616 1.523-1.213 1.934-.598.41-1.19.673-1.776.79-.586.118-1.476.2-2.672.247-.328.21-.492.615-.492 1.213 0 .597.164 1.013.492 1.248 5.532-.094 9.223-.141 11.075-.141h16.101c1.383 0 4.254.047 8.614.14zm58.075 0c.187-.188.281-.598.281-1.23 0-.634-.094-1.044-.281-1.231-1.008-.094-1.57-.14-1.688-.14-.117 0-.562-.083-1.336-.247-.773-.164-1.277-.363-1.511-.598a19.803 19.803 0 01-.967-1.072c-.41-.48-.733-1.084-.967-1.81l-14.836-41.204c-3.516 2.133-6.164 3.2-7.945 3.2l-15.61 36.843c-.562 1.453-1.242 2.537-2.039 3.252-.797.715-1.547 1.166-2.25 1.354-.703.187-1.675.328-2.918.422-.234.21-.351.627-.351 1.248 0 .62.117 1.025.351 1.213 3.563-.094 5.825-.141 6.785-.141 2.813 0 6 .047 9.563.14.187-.187.281-.597.281-1.23s-.094-1.043-.281-1.23l-1.389-.106a16.418 16.418 0 01-1.336-.176c-.574-.093-.972-.21-1.195-.351-.223-.14-.51-.334-.861-.58-.352-.246-.48-.551-.387-.914.094-.364.164-.78.21-1.248l3.798-9.985c.21-.492.469-.82.773-.984.305-.164.89-.246 1.758-.246h13.676l4.043 11.742c.094.328.152.61.176.844.023.234 0 .451-.07.65-.071.2-.165.37-.282.51-.117.14-.299.246-.545.316-.246.07-.463.141-.65.211-.188.07-.463.117-.826.14-.364.024-.674.048-.932.071-.258.024-.621.047-1.09.07a23.66 23.66 0 01-1.125.036c-.234.21-.351.627-.351 1.248 0 .62.117 1.025.351 1.213 3.563-.094 7.676-.141 12.34-.141 2.86 0 6.07.047 9.633.14zm-21.973-20.532H121.48c-.328 0-.603-.005-.826-.017a2.632 2.632 0 01-.58-.088c-.164-.047-.281-.106-.351-.176a.535.535 0 01-.141-.281.598.598 0 01.07-.387l6.399-16.101h.492l5.871 17.05zm52.836 20.954c.633.023 1.09-.282 1.371-.915l16.172-38.109h.176l1.828 30.094c.07 1.101.117 1.933.14 2.496a5.663 5.663 0 01-.158 1.617c-.129.516-.246.861-.351 1.037-.106.176-.405.352-.897.528-.492.175-.926.27-1.3.28-.376.013-1.043.042-2.004.089-.235.21-.352.627-.352 1.248 0 .62.117 1.025.352 1.213 4.5-.094 8.507-.141 12.023-.141 2.063 0 4.676.047 7.84.14.234-.187.351-.597.351-1.23s-.117-1.043-.351-1.23a44.489 44.489 0 01-2.092-.088 4.587 4.587 0 01-1.406-.352c-.48-.199-.803-.392-.967-.58-.164-.187-.34-.562-.527-1.125a7.237 7.237 0 01-.352-1.705c-.047-.574-.105-1.424-.176-2.549l-2.18-30.304c-.14-2.016.06-3.334.598-3.956.54-.62 1.992-1.001 4.36-1.142.234-.258.351-.674.351-1.248s-.117-.979-.351-1.213l-14.45.14-13.71 31.958h-.352l-12.867-31.957-14.766-.141c-.258.234-.38.644-.369 1.23.012.586.135.997.37 1.23 2.53.142 4.036.47 4.517.985.48.516.603 2.098.369 4.746l-2.883 29.672c-.234 2.274-.703 3.867-1.406 4.781-.703.915-2.04 1.454-4.008 1.618-.188.21-.281.627-.281 1.248 0 .62.093 1.025.281 1.213 2.906-.094 4.98-.141 6.223-.141 2.578 0 5.308.047 8.191.14.188-.187.281-.597.281-1.23s-.093-1.043-.281-1.23c-2.203-.188-3.592-.762-4.166-1.723-.574-.96-.768-2.566-.58-4.816l1.898-27h.282l14.168 35.507c.234.61.714.914 1.441.914zm91.121-.422c.188-.188.281-.598.281-1.23 0-.634-.093-1.044-.28-1.231-1.009-.094-1.571-.14-1.688-.14-.118 0-.563-.083-1.336-.247-.774-.164-1.278-.363-1.512-.598a19.802 19.802 0 01-.967-1.072c-.41-.48-.732-1.084-.967-1.81l-14.836-41.204c-3.515 2.133-6.164 3.2-7.945 3.2l-15.61 36.843c-.562 1.453-1.241 2.537-2.038 3.252-.797.715-1.547 1.166-2.25 1.354-.703.187-1.676.328-2.918.422-.235.21-.352.627-.352 1.248 0 .62.117 1.025.352 1.213 3.562-.094 5.824-.141 6.785-.141 2.812 0 6 .047 9.562.14.188-.187.282-.597.282-1.23s-.094-1.043-.282-1.23l-1.388-.106a16.418 16.418 0 01-1.336-.176c-.574-.093-.973-.21-1.196-.351-.222-.14-.51-.334-.86-.58-.352-.246-.481-.551-.388-.914.094-.364.164-.78.211-1.248l3.797-9.985c.211-.492.469-.82.774-.984.304-.164.89-.246 1.757-.246H255.7l4.043 11.742c.094.328.153.61.176.844.023.234 0 .451-.07.65-.07.2-.164.37-.282.51-.117.14-.298.246-.545.316-.246.07-.462.141-.65.211-.187.07-.463.117-.826.14-.363.024-.674.048-.932.071-.258.024-.62.047-1.09.07a23.66 23.66 0 01-1.125.036c-.234.21-.351.627-.351 1.248 0 .62.117 1.025.351 1.213 3.563-.094 7.676-.141 12.34-.141 2.86 0 6.07.047 9.633.14zm-21.973-20.532h-10.933c-.328 0-.604-.005-.826-.017a2.632 2.632 0 01-.58-.088c-.164-.047-.282-.106-.352-.176a.535.535 0 01-.14-.281.598.598 0 01.07-.387l6.398-16.101h.492l5.871 17.05zm48.934 20.532c.352-.235.522-.645.51-1.23-.012-.587-.182-.997-.51-1.231-1.195-.047-2.08-.13-2.654-.246-.574-.118-1.16-.381-1.758-.791-.598-.41-1.008-1.061-1.23-1.952-.223-.89-.335-2.05-.335-3.48v-28.934c0-2.554.264-4.26.791-5.115.528-.855 1.706-1.283 3.534-1.283 6 0 9 3.504 9 10.512 0 3.773-.598 6.492-1.793 8.156-1.196 1.664-3.258 2.496-6.188 2.496-1.406 0-2.613-.07-3.62-.211 0 1.383.48 2.39 1.44 3.023 1.008.141 1.852.211 2.532.211 6.328-.023 10.887-1.183 13.676-3.48 3.21-2.625 4.816-6.434 4.816-11.426.023-4.383-1.816-7.676-5.52-9.879-2.695-1.57-6.703-2.355-12.023-2.355-.96 0-4.746.082-11.355.246l-.447.01c-6.039.15-9.626.229-10.76.235l-.149.001c-.328.187-.492.586-.492 1.195 0 .61.164 1.032.492 1.266 1.219.047 2.115.129 2.69.246.574.117 1.16.38 1.757.791.598.41 1.002 1.06 1.213 1.951.211.89.317 2.051.317 3.48v28.864c0 1.453-.106 2.62-.317 3.498-.21.879-.615 1.523-1.213 1.934-.597.41-1.19.673-1.775.79-.586.118-1.477.2-2.672.247-.328.21-.492.615-.492 1.213 0 .597.164 1.013.492 1.248 3.844-.094 7.547-.141 11.11-.141 3.445 0 7.09.047 10.933.14zm62.75 0c.281-1.055.545-2.268.791-3.639s.475-2.93.686-4.676c.21-1.746.363-2.982.457-3.709-.961-.515-2.04-.633-3.235-.351-1.734 6.14-5.12 9.21-10.16 9.21h-7.277c-.797 0-1.489-.333-2.074-1.001-.586-.668-.88-1.483-.88-2.444v-16.488h5.837c2.414 0 4.09.346 5.027 1.037.937.691 1.453 1.88 1.547 3.568.234.235.762.352 1.582.352.82 0 1.324-.117 1.512-.352-.094-3.351-.141-5.46-.141-6.328 0-1.265.047-3.34.14-6.222-.187-.235-.69-.352-1.511-.352-.82 0-1.348.117-1.582.352-.094 1.922-.592 3.17-1.494 3.744-.903.574-2.596.861-5.08.861h-5.836v-13.605c0-.914.287-1.729.861-2.444.574-.715 1.271-1.072 2.092-1.072h6.117c2.508 0 4.336.586 5.484 1.758 1.149 1.172 2.157 3.152 3.024 5.941 1.195.188 2.226.07 3.094-.351-.094-.82-.2-2.069-.317-3.744l-.316-4.5c-.094-1.325-.164-2.057-.211-2.198-.024-.14-.13-.21-.317-.21a20.95 20.95 0 01-3.515.28h-21.235l-11.109-.14c-.188.234-.281.644-.281 1.23s.093.997.281 1.23c2.695.095 4.418.487 5.168 1.179.75.691 1.125 2.478 1.125 5.361v28.793c0 2.836-.375 4.6-1.125 5.291-.75.691-2.473 1.084-5.168 1.178-.188.21-.281.627-.281 1.248 0 .62.093 1.025.281 1.213 2.367-.047 6.094-.094 11.18-.141h16.91c2.32 0 5.637.047 9.949.14zm31.707 0c7.758 0 13.945-2.016 18.563-6.047 1.78-1.524 3.199-3.727 4.253-6.61 1.055-2.882 1.582-6.129 1.582-9.738 0-7.055-2.273-12.861-6.82-17.42-4.547-4.558-11.062-6.838-19.547-6.838-1.336 0-3.07.012-5.203.035-1.882.021-3.27.033-4.167.035h-.731c-2.032-.006-5.603-.052-10.711-.14-.328.187-.492.586-.492 1.195 0 .61.164 1.032.492 1.266 1.219.047 2.115.129 2.69.246.573.117 1.16.38 1.757.791.598.41 1.002 1.06 1.213 1.951.21.89.316 2.051.316 3.48v28.864c0 1.453-.105 2.62-.316 3.498-.211.879-.615 1.523-1.213 1.934-.598.41-1.19.673-1.775.79-.586.118-1.477.2-2.672.247-.328.21-.492.615-.492 1.213 0 .597.164 1.013.492 1.248l11.11-.141c.96 0 2.905.023 5.835.07 2.675.043 4.53.066 5.563.07h.273zm.211-3.024c-2.648 0-4.465-.375-5.45-1.125-.984-.75-1.476-2.273-1.476-4.57v-29.496c0-3.61 1.488-5.414 4.465-5.414 2.742 0 5.11.468 7.102 1.406 1.992.937 3.527 2.115 4.605 3.533 1.078 1.418 1.94 3.205 2.584 5.361.645 2.157 1.055 4.196 1.23 6.118.176 1.922.264 4.125.264 6.61 0 3.116-.433 5.864-1.3 8.243-.868 2.38-1.987 4.219-3.358 5.52-1.371 1.3-2.789 2.261-4.254 2.883-1.465.62-2.935.931-4.412.931zm53.89 3.024c.352-.235.522-.645.51-1.23-.011-.587-.181-.997-.51-1.231-1.195-.047-2.08-.13-2.654-.246-.574-.118-1.16-.381-1.757-.791-.598-.41-1.008-1.061-1.231-1.952-.223-.89-.334-2.05-.334-3.48v-28.863c0-1.453.111-2.62.334-3.498.223-.88.633-1.524 1.23-1.934.598-.41 1.184-.674 1.758-.791.575-.117 1.46-.2 2.655-.246.351-.258.521-.686.51-1.283-.012-.598-.182-.99-.51-1.178-3.844.094-7.489.14-10.934.14-3.562 0-7.266-.046-11.11-.14-.327.187-.492.586-.492 1.195 0 .61.165 1.032.493 1.266 1.218.047 2.115.129 2.69.246.573.117 1.16.38 1.757.791.598.41 1.002 1.06 1.213 1.951.21.89.316 2.051.316 3.48v28.864c0 1.453-.105 2.62-.316 3.498-.211.879-.615 1.523-1.213 1.934-.598.41-1.19.673-1.775.79-.586.118-1.477.2-2.672.247-.328.21-.493.615-.493 1.213 0 .597.165 1.013.493 1.248 3.843-.094 7.547-.141 11.109-.141 3.445 0 7.09.047 10.934.14zm74.223.046c.25-.25.375-.796.375-1.64 0-.844-.125-1.39-.375-1.64-1.343-.126-2.093-.188-2.25-.188-.156 0-.75-.11-1.781-.328-1.031-.22-1.703-.485-2.016-.797-.312-.313-.742-.79-1.289-1.43-.547-.64-.976-1.445-1.289-2.414l-19.781-54.938c-4.687 2.844-8.219 4.266-10.594 4.266l-20.812 49.125c-.75 1.938-1.656 3.383-2.719 4.336-1.062.953-2.062 1.555-3 1.805-.937.25-2.234.437-3.89.562-.313.281-.47.836-.47 1.664s.157 1.368.47 1.618c4.75-.125 7.765-.188 9.046-.188 3.75 0 8 .063 12.75.188.25-.25.375-.797.375-1.641s-.125-1.39-.375-1.64c-.812-.063-1.43-.11-1.851-.141a21.89 21.89 0 01-1.782-.235c-.765-.125-1.296-.281-1.593-.469-.297-.187-.68-.445-1.149-.773-.468-.328-.64-.734-.515-1.219.125-.484.218-1.039.28-1.664l5.063-13.312c.282-.656.625-1.094 1.032-1.313.406-.219 1.187-.328 2.343-.328h18.235l5.39 15.656c.125.438.204.813.235 1.125.031.313 0 .602-.094.868a2.187 2.187 0 01-.375.68c-.156.187-.398.327-.727.421-.328.094-.617.188-.867.281-.25.094-.617.157-1.101.188a48.53 48.53 0 00-1.242.094 38.22 38.22 0 01-1.454.093c-.625.032-1.125.047-1.5.047-.312.281-.468.836-.468 1.664s.156 1.368.468 1.618c4.75-.125 10.235-.188 16.454-.188 3.812 0 8.093.063 12.843.188zm-29.297-27.375h-14.578c-.437 0-.804-.007-1.101-.023a3.509 3.509 0 01-.774-.117c-.218-.063-.375-.14-.468-.235a.713.713 0 01-.188-.375c-.031-.156 0-.328.094-.515l8.531-21.469h.656l7.828 22.735z" fill="#666"/></g></svg>