<svg height="40" viewBox="0 0 100 40" width="100" xmlns="http://www.w3.org/2000/svg"><g fill="#292933"><path d="m48.2 12.7c-2.6 0-4.5 1.3-5.1 3.6-.7 2.6 1.5 4 3.1 4.9 1.8 1.1 2.3 1.6 2.2 2.4-.2 1-1.6 1.3-2.9 1.3-.6 0-1.3-.1-1.7-.5-.5-.4 0-1.3.5-1.5.2-.2-1.3-2-1.8-1.5-.5.4-1 1.1-1.2 2.2-.2.7 0 1.5.5 2.2.8 1 2.1 1.5 3.7 1.5 2.7 0 4.7-1.2 5.1-3.2.6-2.6-1.6-3.9-3.2-4.9-1.8-1.1-2.3-1.5-2.1-2.4.3-1.2 1.3-1.9 2.9-1.9.6 0 1 .2 1.3.5.2.3.3.6.2.8 0 .2-.2.4-.4.6s-.3.6.1.8c.3.2 1.5.9 1.5.9.4-.4.9-1.1 1.1-1.9.2-.9-.1-1.9-.7-2.7-.8-.8-1.9-1.2-3.1-1.2"/><path d="m25.6 15.9c.6-.3 1.1-.5 1.5-.5.2 0 .3 0 .4.1.2.2.3.4.2.7-.1 1.2-1.8 3.3-4.3 5.1l-.1.1c-.2.1-.5.4-1 .8-.6-2.6 1.5-5.2 3.3-6.3m-4.7 1.8c-1 1.9-1.2 3.8-.6 5.6 0 .1.1.2.1.3v-.1c-1.1.7-2.4 1.4-3.4 1.7-.5.1-.4.7-.4 1s.3.8.8.8h.2c.7-.2 2.1-.9 3.7-1.8.9 1.1 2 1.6 2.9 1.7.3.1.7.1 1 .1 1.7 0 3.3-.9 4.7-2.1.1.3.2.5.4.8.8.9 2.1 1.5 3.9 1.5 2.8 0 4.9-1.2 5.3-3.2.6-2.6-1.6-3.9-3.1-4.9-1.7-1.1-2.2-1.5-2-2.4.3-1.2 1.3-1.9 2.9-1.9.7 0 1.5.3 1.7 1 .1.3 0 .6-.2.8l-.4.4c-.1.1-.2.3-.2.5s.1.3.2.4c.5.4 1.4.7 1.5.8h.1l.1-.1c.4-.4 1-1.1 1.2-2s-.1-1.8-.7-2.6c-.8-1-1.9-1.5-3.3-1.5-2.6 0-4.5 1.3-5.1 3.6-.7 2.6 1.5 4 3 4.9 1.7 1.1 2.3 1.6 2.1 2.4 0 1-1.3 1.6-2.9 1.6-.5 0-.9-.1-1.3-.2s-.8-.3-.9-.6c0-.3.1-.6.3-.9.2-.2-.1-1-.4-1.2-.3-.3-.6-.6-.9-.6-.1 0-.2 0-.2.1-1.6 1.9-3.9 3.2-5.7 3.2-.2 0-.4 0-.6-.1-.5-.1-1-.3-1.4-.7.5-.3.9-.6 1.4-1l.1-.1c3.2-2.5 5-4.7 5.2-6.6.1-.9-.2-1.8-.8-2.5-.5-.5-1.2-.8-2.1-.8-.8 0-1.8.3-2.7.9-1.4.9-2.7 2.2-3.5 3.8"/><path d="m7.8 32.7h-.1c-.6 0-1.1-.3-1.2-.6-.1-.6.4-1.2.9-1.6.7-.5 1.5-.7 2.6-.7h.9c-1.1 2.6-2.2 2.9-3.1 2.9m10.8-23.8c.1-.2.3-.4.5-.7 1-1.2 1.6-1.4 1.8-1.4h.1c.4.1.5.3.5.4s.1.3 0 .5v.4c0 .4-.2.9-.5 1.2-.8.8-2 1.4-3.4 1.5.3-.7.6-1.3 1-1.9m22.4 21.8h-.2c-.8.3-1.7.6-2.5.8-1 .3-2.1.5-3.1.6-.9.1-1.9.2-2.9.2-5.5 0-10.2-1.1-14-2.5-.6-.2-1.1-.4-1.6-.6-1-.4-2-.7-2.8-1 .6-2.3 1.1-5.1 1.7-8.2.4-2.1.8-4.3 1.2-6.6 0-.1 0-.2.1-.3h.7c1.1 0 2.8-.3 4.1-1.3.3-.2.7-.6 1-.9.7-.7 1.1-1.9 1.2-2.9v-.5-.2.1c0-.4 0-.8-.2-1.1-.3-1-1.2-1.7-2.3-1.9h-.5c-1.7 0-3.1 1.6-3.5 2.2-.3.3-.5.6-.7.9-.6 1-1.1 2.1-1.5 3.2-.8-.1-1.6-.2-2.3-.5-1-.4-1.9-.8-2.7-1.4-.1 0-.2 0-.3.2-.1.4.6 1.8.8 2 .6.3 1.2.8 2.1 1.1l1.8.6v.2c-.5 2.3-.9 4.5-1.3 6.7-.6 3.1-1 5.8-1.7 8.1-.6-.1-1.1-.1-1.6-.1-1.5 0-2.8.3-3.8 1-1.2.8-2.2 2.2-2 3.7v.3c.3 1.6 2 2.4 3.3 2.5h.2c3.5 0 4.8-3.5 5.3-4.6.8.2 1.8.6 2.8.9 3.7 1.3 8.7 3.1 14.7 3.1 3.6 0 7.2-.6 10.6-1.9.4-.2.4-.5.3-.8 0-.3-.2-1.1-.4-1.1"/><path d="m61.6 17.6v.2c.1 0 .1-.1 0-.2zm-.1 2.1c-.6 2.8-2.7 5-4.7 5-.6 0-1-.2-1.4-.6-.6-.8-.8-2.2-.5-3.8.4-1.7 1.4-3.4 2.6-4.4 0 .4.1.7.3 1.1.5.8 1.4 1.3 2.5 1.2.5 0 1-.2 1.4-.4 0 .7-.1 1.3-.2 1.9zm-1.8-4.6c.2-.1.4-.2.6-.1.3.1.4.3.6.5l.3.3c-.3.4-.7.7-1 .7-.4 0-.7-.3-.8-.7-.1-.3 0-.5.3-.7zm19.6 9.1c-1 .7-1.9 1.1-2.5 1.1-.5 0-.8-.3-1.1-.5-.3-.4-.4-.8-.3-1.2.2-1 1-4.3 1-4.4.4-2.3.2-3.8-.6-4.8-.7-.8-1.7-1.2-3.2-1.2-1.1 0-2.5.4-3.7 1.8-.1-.4-.2-.7-.4-.9-.5-.6-1.2-1-2-1.2-.1 0-.3-.1-.4-.1-.8-.1-1.5.2-2.1.6-.5.3-.9.6-1.3 1 .1.1.1.1.1.2-.4-.6-.9-1-1.6-1.3-1.3-.5-2.8.1-3.6 1.5-.1.2-.2.3-.2.5-.2-.7-.4-1.5-1-1.4-1.8 1.3-3.3 3.6-3.9 6.1-.5 2.3-.1 4.3.9 5.7.8 1 1.9 1.5 3.2 1.5 1.5 0 3.1-.7 4.4-2 1.3-1.2 2.2-3 2.6-4.8.3-1.4.3-2.8 0-3.9h.1c.3-.2.6-.5.8-.8.3-.3.6-.6 1-.7.4-.2.9-.2 1.3 0 .5.2.8.7.7 1.2v.1c-.2.8-.5 2.3-.8 3.8-.7 3.2-1.4 6.5-1.4 6.7-.1.3.1.7.5.7h1.7l1.5-7.2c.5-2.2 1.6-4.7 3.6-4.7.6 0 1.2.1 1.5.6.2.3.2.8.2 1.2 0 .5-.1 1-.2 1.5-.1.3-.8 3.4-1 4.4-.3 1.3.1 2.2.5 2.8.6.8 1.6 1.2 2.6 1.2 1.5 0 3-.9 3.8-1.5z"/><path d="m94.7 19.1c.9-4.3 1.2-6 1.2-6.1-.2-.1-1-.2-2.3-.1 0 0-.8 3.6-1.5 7.1-1.1 3.9-2.1 4.8-3.4 4.8-.6 0-1-.2-1.3-.6-.6-.8-.8-2.2-.4-3.8l1.6-7.2c0-.3-1-.3-2.3-.2l-1.5 6.9c-.4 1.6-.3 3.1.1 4.3-.8.5-2.1 1-2.8 1-.6 0-1.5-.2-1.4-.8.2-1.1 1.9-8.7 2.3-10.6 0 0 .7-3.4 1.3-6.1.4-1.9-.7-3.4-.8-3.5-.5-.6-1.6-.1-1.8 1.4 0 0 .5.8.4 1.6-.6 2.7-1.3 6.1-1.3 6.1-.4 1.9-2.1 9.5-2.3 10.6-.2.7 0 1.4.5 2 .6.7 1.6 1.2 2.7 1.2 1.4 0 2.9-.8 3.9-1.6 0 0 0 .1.1.1.8 1 1.8 1.5 3.1 1.5.8 0 1.4-.2 2-.5 0 .1-.1.3-.1.4-.3 1.4-.9 2.6-1.7 3.6-3.4 4.4-10.6 5.6-15.4 4.8-3.3-.6-6.7-2.1-6-5-.9-.2-2.1-.9-2.2-.3-.3 1.9.5 3.6 2.1 5 1.4 1.1 3.3 2 5.7 2.4 1.2.2 2.5.3 3.7.3 2.8 0 5.6-.5 8-1.5 2-.8 3.7-1.9 5-3.3.3-.3.5-.6.8-.9 1.1-1.3 1.8-2.9 2.2-4.6 1.7-7.6 1.8-8.5 1.8-8.4"/></g></svg>